<svg width="98" height="26" viewBox="0 0 98 26" fill="none" xmlns="http://www.w3.org/2000/svg">
<g clip-path="url(#clip0_2400_10399)">
<path d="M8.66699 9.33366C8.66699 8.96547 8.36851 8.66699 8.00033 8.66699C7.63213 8.66699 7.33366 8.96547 7.33366 9.33366V13.0003C7.33366 13.1771 7.4039 13.3467 7.52892 13.4717L9.52892 15.4717C9.78927 15.7321 10.2114 15.7321 10.4717 15.4717C10.7321 15.2114 10.7321 14.7893 10.4717 14.5289L8.66699 12.7242V9.33366Z" fill="#787A80"/>
<path fill-rule="evenodd" clip-rule="evenodd" d="M8.00033 5.66699C3.95024 5.66699 0.666992 8.95024 0.666992 13.0003C0.666992 17.0504 3.95024 20.3337 8.00033 20.3337C12.0504 20.3337 15.3337 17.0504 15.3337 13.0003C15.3337 8.95024 12.0504 5.66699 8.00033 5.66699ZM2.00033 13.0003C2.00033 9.68662 4.68662 7.00033 8.00033 7.00033C11.314 7.00033 14.0003 9.68662 14.0003 13.0003C14.0003 16.314 11.314 19.0003 8.00033 19.0003C4.68662 19.0003 2.00033 16.314 2.00033 13.0003Z" fill="#787A80"/>
<path d="M31.224 14.864H32.96V15.68C32.96 15.7653 32.9333 15.8373 32.88 15.896C32.832 15.9547 32.7547 15.984 32.648 15.984H31.224V19H29.968V15.984H24.888C24.7813 15.984 24.688 15.9547 24.608 15.896C24.5333 15.832 24.4853 15.7547 24.464 15.664L24.32 14.936L29.896 7.536H31.224V14.864ZM29.968 10.136C29.968 9.99733 29.9707 9.848 29.976 9.688C29.9867 9.528 30.0053 9.36267 30.032 9.192L25.864 14.864H29.968V10.136ZM37.543 19V10.896H38.391C38.5937 10.896 38.7217 10.9947 38.775 11.192L38.879 12.024C39.1777 11.656 39.511 11.3547 39.879 11.12C40.2523 10.8853 40.6843 10.768 41.175 10.768C41.7243 10.768 42.167 10.92 42.503 11.224C42.8443 11.528 43.0897 11.9387 43.239 12.456C43.351 12.1627 43.4977 11.9093 43.679 11.696C43.8657 11.4827 44.0737 11.3067 44.303 11.168C44.5323 11.0293 44.775 10.928 45.031 10.864C45.2923 10.8 45.5563 10.768 45.823 10.768C46.2497 10.768 46.6283 10.8373 46.959 10.976C47.295 11.1093 47.5777 11.3067 47.807 11.568C48.0417 11.8293 48.2203 12.152 48.343 12.536C48.4657 12.9147 48.527 13.3493 48.527 13.84V19H47.103V13.84C47.103 13.2053 46.9643 12.7253 46.687 12.4C46.4097 12.0693 46.007 11.904 45.479 11.904C45.2443 11.904 45.0203 11.9467 44.807 12.032C44.599 12.112 44.415 12.232 44.255 12.392C44.095 12.552 43.967 12.7547 43.871 13C43.7803 13.24 43.735 13.52 43.735 13.84V19H42.311V13.84C42.311 13.1893 42.1803 12.704 41.919 12.384C41.6577 12.064 41.2763 11.904 40.775 11.904C40.423 11.904 40.095 12 39.791 12.192C39.4923 12.3787 39.2177 12.6347 38.967 12.96V19H37.543ZM52.2676 10.896V19H50.8436V10.896H52.2676ZM52.5876 8.352C52.5876 8.49067 52.5583 8.62133 52.4996 8.744C52.4463 8.86133 52.3716 8.968 52.2756 9.064C52.185 9.15467 52.0783 9.22667 51.9556 9.28C51.833 9.33333 51.7023 9.36 51.5636 9.36C51.425 9.36 51.2943 9.33333 51.1716 9.28C51.0543 9.22667 50.9476 9.15467 50.8516 9.064C50.761 8.968 50.689 8.86133 50.6356 8.744C50.5823 8.62133 50.5556 8.49067 50.5556 8.352C50.5556 8.21333 50.5823 8.08267 50.6356 7.96C50.689 7.832 50.761 7.72267 50.8516 7.632C50.9476 7.536 51.0543 7.46133 51.1716 7.408C51.2943 7.35467 51.425 7.328 51.5636 7.328C51.7023 7.328 51.833 7.35467 51.9556 7.408C52.0783 7.46133 52.185 7.536 52.2756 7.632C52.3716 7.72267 52.4463 7.832 52.4996 7.96C52.5583 8.08267 52.5876 8.21333 52.5876 8.352ZM54.7774 19V10.896H55.6254C55.828 10.896 55.956 10.9947 56.0094 11.192L56.1214 12.072C56.4734 11.6827 56.8654 11.368 57.2974 11.128C57.7347 10.888 58.2387 10.768 58.8094 10.768C59.252 10.768 59.6414 10.8427 59.9774 10.992C60.3187 11.136 60.6014 11.344 60.8254 11.616C61.0547 11.8827 61.228 12.2053 61.3454 12.584C61.4627 12.9627 61.5214 13.3813 61.5214 13.84V19H60.0974V13.84C60.0974 13.2267 59.956 12.752 59.6734 12.416C59.396 12.0747 58.9694 11.904 58.3934 11.904C57.972 11.904 57.5774 12.0053 57.2094 12.208C56.8467 12.4107 56.5107 12.6853 56.2014 13.032V19H54.7774ZM66.7618 19V10.896H67.5778C67.7324 10.896 67.8391 10.9253 67.8978 10.984C67.9564 11.0427 67.9964 11.144 68.0178 11.288L68.1138 12.552C68.3911 11.9867 68.7324 11.5467 69.1378 11.232C69.5484 10.912 70.0284 10.752 70.5778 10.752C70.8018 10.752 71.0044 10.7787 71.1858 10.832C71.3671 10.88 71.5351 10.9493 71.6898 11.04L71.5058 12.104C71.4684 12.2373 71.3858 12.304 71.2578 12.304C71.1831 12.304 71.0684 12.28 70.9138 12.232C70.7591 12.1787 70.5431 12.152 70.2658 12.152C69.7698 12.152 69.3538 12.296 69.0178 12.584C68.6871 12.872 68.4098 13.2907 68.1858 13.84V19H66.7618ZM76.4229 10.768C76.9082 10.768 77.3562 10.8507 77.7669 11.016C78.1775 11.176 78.5322 11.4107 78.8309 11.72C79.1295 12.024 79.3615 12.4027 79.5269 12.856C79.6975 13.304 79.7829 13.816 79.7829 14.392C79.7829 14.616 79.7589 14.7653 79.7109 14.84C79.6629 14.9147 79.5722 14.952 79.4389 14.952H74.0469C74.0575 15.464 74.1269 15.9093 74.2549 16.288C74.3829 16.6667 74.5589 16.984 74.7829 17.24C75.0069 17.4907 75.2735 17.68 75.5829 17.808C75.8922 17.9307 76.2389 17.992 76.6229 17.992C76.9802 17.992 77.2869 17.952 77.5429 17.872C77.8042 17.7867 78.0282 17.696 78.2149 17.6C78.4015 17.504 78.5562 17.416 78.6789 17.336C78.8069 17.2507 78.9162 17.208 79.0069 17.208C79.1242 17.208 79.2149 17.2533 79.2789 17.344L79.6789 17.864C79.5029 18.0773 79.2922 18.264 79.0469 18.424C78.8015 18.5787 78.5375 18.7067 78.2549 18.808C77.9775 18.9093 77.6895 18.984 77.3909 19.032C77.0922 19.0853 76.7962 19.112 76.5029 19.112C75.9429 19.112 75.4255 19.0187 74.9509 18.832C74.4815 18.64 74.0735 18.3627 73.7269 18C73.3855 17.632 73.1189 17.1787 72.9269 16.64C72.7349 16.1013 72.6389 15.4827 72.6389 14.784C72.6389 14.2187 72.7242 13.6907 72.8949 13.2C73.0709 12.7093 73.3215 12.2853 73.6469 11.928C73.9722 11.5653 74.3695 11.2827 74.8389 11.08C75.3082 10.872 75.8362 10.768 76.4229 10.768ZM76.4549 11.816C75.7669 11.816 75.2255 12.016 74.8309 12.416C74.4362 12.8107 74.1909 13.36 74.0949 14.064H78.5029C78.5029 13.7333 78.4575 13.432 78.3669 13.16C78.2762 12.8827 78.1429 12.6453 77.9669 12.448C77.7909 12.2453 77.5749 12.0907 77.3189 11.984C77.0682 11.872 76.7802 11.816 76.4549 11.816ZM87.5575 19H86.9255C86.7868 19 86.6748 18.9787 86.5895 18.936C86.5042 18.8933 86.4482 18.8027 86.4215 18.664L86.2615 17.912C86.0482 18.104 85.8402 18.2773 85.6375 18.432C85.4348 18.5813 85.2215 18.7093 84.9975 18.816C84.7735 18.9173 84.5335 18.9947 84.2775 19.048C84.0268 19.1013 83.7468 19.128 83.4375 19.128C83.1228 19.128 82.8268 19.0853 82.5495 19C82.2775 18.9093 82.0402 18.776 81.8375 18.6C81.6348 18.424 81.4722 18.2027 81.3495 17.936C81.2322 17.664 81.1735 17.344 81.1735 16.976C81.1735 16.656 81.2615 16.3493 81.4375 16.056C81.6135 15.7573 81.8962 15.4933 82.2855 15.264C82.6802 15.0347 83.1948 14.848 83.8295 14.704C84.4642 14.5547 85.2402 14.4693 86.1575 14.448V13.816C86.1575 13.1867 86.0215 12.712 85.7495 12.392C85.4828 12.0667 85.0855 11.904 84.5575 11.904C84.2108 11.904 83.9175 11.9493 83.6775 12.04C83.4428 12.1253 83.2375 12.224 83.0615 12.336C82.8908 12.4427 82.7415 12.5413 82.6135 12.632C82.4908 12.7173 82.3682 12.76 82.2455 12.76C82.1495 12.76 82.0642 12.736 81.9895 12.688C81.9202 12.6347 81.8642 12.5707 81.8215 12.496L81.5655 12.04C82.0135 11.608 82.4962 11.2853 83.0135 11.072C83.5308 10.8587 84.1042 10.752 84.7335 10.752C85.1868 10.752 85.5895 10.8267 85.9415 10.976C86.2935 11.1253 86.5895 11.3333 86.8295 11.6C87.0695 11.8667 87.2508 12.1893 87.3735 12.568C87.4962 12.9467 87.5575 13.3627 87.5575 13.816V19ZM83.8615 18.128C84.1122 18.128 84.3415 18.104 84.5495 18.056C84.7575 18.0027 84.9522 17.9307 85.1335 17.84C85.3202 17.744 85.4962 17.6293 85.6615 17.496C85.8322 17.3627 85.9975 17.2107 86.1575 17.04V15.352C85.5015 15.3733 84.9442 15.4267 84.4855 15.512C84.0268 15.592 83.6535 15.6987 83.3655 15.832C83.0775 15.9653 82.8668 16.1227 82.7335 16.304C82.6055 16.4853 82.5415 16.688 82.5415 16.912C82.5415 17.1253 82.5762 17.3093 82.6455 17.464C82.7148 17.6187 82.8082 17.7467 82.9255 17.848C83.0428 17.944 83.1815 18.016 83.3415 18.064C83.5015 18.1067 83.6748 18.128 83.8615 18.128ZM95.4189 19C95.2162 19 95.0882 18.9013 95.0349 18.704L94.9069 17.72C94.5602 18.1413 94.1629 18.48 93.7149 18.736C93.2722 18.9867 92.7629 19.112 92.1869 19.112C91.7229 19.112 91.3015 19.024 90.9229 18.848C90.5442 18.6667 90.2215 18.4027 89.9549 18.056C89.6882 17.7093 89.4829 17.2773 89.3389 16.76C89.1949 16.2427 89.1229 15.648 89.1229 14.976C89.1229 14.3787 89.2029 13.824 89.3629 13.312C89.5229 12.7947 89.7522 12.3467 90.0509 11.968C90.3549 11.5893 90.7229 11.2933 91.1549 11.08C91.5869 10.8613 92.0775 10.752 92.6269 10.752C93.1229 10.752 93.5469 10.8373 93.8989 11.008C94.2509 11.1733 94.5655 11.408 94.8429 11.712V7.216H96.2669V19H95.4189ZM92.6589 17.96C93.1229 17.96 93.5282 17.8533 93.8749 17.64C94.2269 17.4267 94.5495 17.1253 94.8429 16.736V12.816C94.5815 12.464 94.2935 12.2187 93.9789 12.08C93.6695 11.936 93.3255 11.864 92.9469 11.864C92.1895 11.864 91.6082 12.1333 91.2029 12.672C90.7975 13.2107 90.5949 13.9787 90.5949 14.976C90.5949 15.504 90.6402 15.9573 90.7309 16.336C90.8215 16.7093 90.9549 17.0187 91.1309 17.264C91.3069 17.504 91.5229 17.68 91.7789 17.792C92.0349 17.904 92.3282 17.96 92.6589 17.96Z" fill="#787A80"/>
</g>
<defs>
<clipPath id="clip0_2400_10399">
<rect width="98" height="26" fill="white"/>
</clipPath>
</defs>
</svg>
